PathFileType	4	(X/Y/Z)	D:\TRACE\spotREDO_2-26-24\spot_justArm_Motion_3_1-platform.trc
DataRate	CameraRate	NumFrames	NumMarkers	Units	OrigDataRate	OrigDataStartFrame	OrigNumFrames
100.00	100.00	      60	5	mm	100.00	1	      7000
Frame#	Time	Left_Front			Right_Front			Left_Aft			Right_Aft			Post			
		X1	Y1	Z1	X2	Y2	Z2	X3	Y3	Z3	X4	Y4	Z4	X5	Y5	Z5	

1	0.000	-736.38373	99.41676	-539.14874	678.52155	94.03848	-455.24963	-806.61536	-107.47764	662.62976	763.09784	-101.95516	666.08936	-27.35670	789.09564	-828.26721	
2	0.010	-736.40912	99.41737	-539.17334	678.56439	93.95652	-455.26993	-806.66058	-107.50467	662.54694	763.13525	-101.97052	666.06494	-27.34267	789.05438	-828.27582	
3	0.020	-736.40948	99.42408	-539.17737	678.52222	94.01683	-455.22052	-806.65002	-107.51033	662.54688	763.10815	-101.92746	666.05756	-27.35620	789.07422	-828.24799	
4	0.030	-736.35376	99.43927	-539.18939	678.54865	93.97118	-455.29041	-806.68158	-107.52198	662.53760	763.12433	-101.92410	666.03680	-27.26729	789.03583	-828.26727	
5	0.040	-736.35962	99.43052	-539.22253	678.57233	93.98831	-455.31848	-806.59137	-107.41496	662.56757	763.09955	-101.89520	666.04626	-27.25221	789.04987	-828.27423	
6	0.050	-736.35809	99.41454	-539.17914	678.50848	93.98940	-455.25568	-806.63354	-107.48520	662.56146	763.11700	-101.95102	666.07892	-27.33504	789.06091	-828.24530	
7	0.060	-736.35687	99.41371	-539.19031	678.55914	93.96251	-455.30057	-806.64636	-107.52959	662.59601	763.11829	-101.96192	666.06537	-27.30771	789.07617	-828.25220	
8	0.070	-736.35986	99.39977	-539.20929	678.55316	93.98708	-455.25549	-806.68811	-107.52090	662.59314	763.13177	-101.92760	666.07013	-27.29812	789.02917	-828.25604	
9	0.080	-736.36798	99.42288	-539.19678	678.54761	94.00018	-455.20718	-806.70605	-107.57813	662.47156	763.12091	-101.91643	666.07983	-27.30274	789.03699	-828.27167	
10	0.090	-736.38458	99.47676	-539.19476	678.54614	94.00629	-455.24396	-806.64532	-107.50116	662.52264	763.10028	-101.96056	666.06226	-27.25474	789.05524	-828.28918	
11	0.100	-736.41595	99.43480	-539.18268	678.51501	93.96818	-455.29294	-806.65845	-107.50504	662.54187	763.07739	-101.94417	666.05493	-27.27573	789.06763	-828.30853	
12	0.110	-736.39648	99.43295	-539.20496	678.52820	94.01376	-455.20071	-806.65161	-107.52711	662.60211	763.09027	-101.93330	666.06287	-27.30379	789.09509	-828.28467	
13	0.120	-736.39020	99.42642	-539.18671	678.54474	93.97137	-455.30600	-806.65741	-107.55725	662.60498	763.12848	-101.93827	666.08337	-27.25610	789.07410	-828.27979	
14	0.130	-736.36530	99.40376	-539.18243	678.52576	93.98920	-455.27219	-806.67725	-107.58648	662.53418	763.14807	-101.92966	666.05597	-27.31014	789.06549	-828.26825	
15	0.140	-736.37073	99.44791	-539.21136	678.56604	93.97556	-455.25449	-806.70129	-107.55288	662.52271	763.13715	-101.92958	666.05267	-27.23591	789.04871	-828.28601	
16	0.150	-736.37189	99.44160	-539.21967	678.54663	94.02234	-455.26096	-806.62848	-107.48011	662.50476	763.13147	-101.94583	666.03601	-27.18800	789.03259	-828.28546	
17	0.160	-736.42139	99.37353	-539.15656	678.51892	94.00133	-455.24744	-806.63318	-107.51342	662.65192	763.09998	-101.94640	666.05908	-27.34035	789.03003	-828.23865	
18	0.170	-736.41101	99.38445	-539.17712	678.54285	93.96722	-455.26083	-806.64777	-107.52252	662.60632	763.14056	-101.92702	666.06671	-27.28802	788.99908	-828.24054	
19	0.180	-736.46130	99.38377	-539.15143	678.52667	93.98501	-455.27640	-806.65924	-107.52083	662.55383	763.07440	-101.92714	666.05750	-27.31101	789.03345	-828.25385	
20	0.190	-736.49341	99.45441	-539.13226	678.54352	93.99603	-455.27893	-806.69653	-107.50635	662.54474	763.11841	-101.93118	666.03949	-27.32589	789.02832	-828.25250	
21	0.200	-736.44116	99.37210	-539.12408	678.54053	94.00806	-455.22858	-806.64233	-107.50725	662.55872	763.12213	-101.92475	666.06384	-27.25207	789.09314	-828.29022	
22	0.210	-736.49640	99.40896	-539.12164	678.51733	94.04890	-455.28375	-806.61633	-107.52533	662.66040	763.11078	-101.91501	666.04590	-27.31911	789.10291	-828.27319	
23	0.220	-736.53137	99.44624	-539.14410	678.50092	94.01327	-455.24930	-806.66144	-107.55083	662.61902	763.10309	-101.95289	666.06659	-27.31845	789.08966	-828.28302	
24	0.230	-736.50610	99.43570	-539.13745	678.59131	93.98059	-455.24594	-806.64740	-107.52822	662.57379	763.11407	-101.94492	666.08093	-27.28155	789.06329	-828.28644	
25	0.240	-736.51678	99.42326	-539.14612	678.53625	93.97196	-455.24979	-806.66937	-107.49542	662.53955	763.12140	-101.90930	666.05328	-27.30367	789.04333	-828.28461	
26	0.250	-736.49872	99.41479	-539.13794	678.50470	93.99040	-455.26559	-806.71887	-107.55891	662.47803	763.08600	-101.92414	666.07147	-27.29062	789.05780	-828.26544	
27	0.260	-736.54071	99.38204	-539.12958	678.51276	94.01003	-455.27777	-806.63971	-107.43815	662.52557	763.13226	-101.93602	666.05518	-27.19723	789.02490	-828.28308	
28	0.270	-736.51520	99.42251	-539.15247	678.53772	93.95695	-455.28287	-806.60773	-107.48370	662.58044	763.09033	-101.95039	666.05664	-27.33218	789.08759	-828.23639	
29	0.280	-736.54785	99.42481	-539.14246	678.52283	93.95821	-455.28943	-806.63495	-107.55218	662.57782	763.12616	-101.97520	666.05878	-27.30921	789.05432	-828.24109	
30	0.290	-736.54828	99.45999	-539.14288	678.55792	93.98752	-455.23413	-806.68201	-107.50574	662.56879	763.14679	-101.92733	666.05884	-27.22957	789.04742	-828.26526	
31	0.300	-736.48773	99.39051	-539.15155	678.50201	94.00943	-455.26321	-806.68536	-107.54223	662.50140	763.13385	-101.91523	666.03851	-27.33485	789.06714	-828.26257	
32	0.310	-736.50580	99.43351	-539.14636	678.56018	94.03065	-455.26523	-806.66125	-107.49967	662.49390	763.15222	-101.93092	666.05139	-27.21824	789.04034	-828.27631	
33	0.320	-736.50360	99.42567	-539.13611	678.52496	93.95962	-455.29846	-806.63989	-107.51912	662.55310	763.09033	-101.97366	666.07019	-27.31607	789.06427	-828.25763	
34	0.330	-736.49036	99.43866	-539.14447	678.49512	93.97110	-455.27020	-806.66431	-107.55000	662.63599	763.14728	-101.96613	666.07721	-27.35620	789.10004	-828.24774	
35	0.340	-736.57111	99.47079	-539.15515	678.50262	93.98370	-455.26001	-806.64081	-107.48501	662.59082	763.13171	-101.91467	666.05383	-27.29280	789.09473	-828.28857	
36	0.350	-736.51947	99.43738	-539.13690	678.54871	93.99400	-455.25833	-806.68219	-107.52953	662.54962	763.11932	-101.95662	666.03503	-27.33071	789.07782	-828.27686	
37	0.360	-736.51752	99.39239	-539.14172	678.50415	93.99223	-455.26416	-806.67090	-107.51002	662.55969	763.15790	-101.90844	666.04822	-27.22730	789.04590	-828.29651	
38	0.370	-736.52136	99.41654	-539.15448	678.55347	94.00447	-455.26266	-806.67462	-107.52372	662.58691	763.16498	-101.96126	666.06439	-27.24770	789.03790	-828.27563	
39	0.380	-736.50824	99.39863	-539.14288	678.52448	93.99977	-455.28635	-806.63818	-107.52329	662.61511	763.09900	-101.94925	666.04523	-27.37319	789.05847	-828.25024	
40	0.390	-736.49792	99.40012	-539.14178	678.52203	94.01278	-455.26825	-806.63373	-107.51320	662.57874	763.11353	-101.93754	666.04974	-27.27590	789.03333	-828.27271	
41	0.400	-736.51648	99.43969	-539.14703	678.54626	93.94065	-455.28986	-806.71674	-107.49744	662.50006	763.13293	-101.93277	666.05145	-27.29725	789.04553	-828.26160	
42	0.410	-736.49158	99.42097	-539.12726	678.50848	93.99632	-455.25345	-806.66260	-107.49249	662.53418	763.09583	-101.92507	666.07623	-27.33059	789.07031	-828.27026	
43	0.420	-736.50208	99.43411	-539.12842	678.61627	93.96040	-455.23761	-806.61816	-107.47224	662.50977	763.16339	-101.92592	666.04169	-27.19286	789.04272	-828.30420	
44	0.430	-736.51385	99.40282	-539.13123	678.55347	93.98226	-455.21924	-806.62848	-107.57243	662.55054	763.13110	-101.93131	666.04590	-27.33342	789.08722	-828.25153	
45	0.440	-736.50098	99.39167	-539.12604	678.54468	93.98421	-455.29333	-806.64349	-107.51006	662.62317	763.14532	-101.96736	666.06396	-27.32615	789.07489	-828.25775	
46	0.450	-736.50244	99.39252	-539.12982	678.52887	93.99051	-455.25119	-806.65106	-107.46676	662.55341	763.12744	-101.95683	666.05078	-27.24125	789.05591	-828.28625	
47	0.460	-736.52997	99.39679	-539.12689	678.56549	93.97413	-455.24283	-806.67389	-107.46808	662.51050	763.15710	-101.93062	666.06024	-27.23670	789.04388	-828.26959	
48	0.470	-736.50873	99.40288	-539.12769	678.52521	93.96720	-455.27893	-806.69775	-107.48617	662.51782	763.15131	-101.92457	666.04309	-27.27220	789.03186	-828.27441	
49	0.480	-736.50885	99.42855	-539.15277	678.54419	94.01486	-455.22681	-806.65607	-107.52869	662.57751	763.14966	-101.95586	666.08264	-27.23712	789.03149	-828.28674	
50	0.490	-736.47491	99.41705	-539.15472	678.53662	93.98102	-455.25961	-806.60748	-107.50093	662.60236	763.11127	-101.92654	666.09033	-27.32071	789.05450	-828.26471	
51	0.500	-736.50531	99.43981	-539.12958	678.52789	94.00478	-455.24203	-806.68372	-107.51534	662.54327	763.15375	-101.90951	666.06287	-27.22177	789.04767	-828.29224	
52	0.510	-736.47205	99.44006	-539.11731	678.56525	94.00150	-455.24704	-806.64081	-107.52782	662.52014	763.12701	-101.94289	666.06250	-27.19786	789.06073	-828.30084	
53	0.520	-736.51208	99.44589	-539.13141	678.52380	94.02764	-455.24722	-806.64154	-107.50261	662.57404	763.11304	-101.94353	666.06219	-27.25659	789.05267	-828.27045	
54	0.530	-736.50995	99.40511	-539.13007	678.53851	93.97255	-455.26099	-806.68677	-107.59711	662.58600	763.12549	-101.93260	666.06128	-27.29745	789.04565	-828.26898	
55	0.540	-736.50165	99.39143	-539.14044	678.49933	94.01374	-455.28397	-806.67389	-107.54529	662.58966	763.16949	-101.96988	666.07257	-27.26160	789.07312	-828.26819	
56	0.550	-736.48322	99.39021	-539.16888	678.50085	93.95566	-455.27731	-806.67963	-107.49725	662.55957	763.10620	-101.93041	666.05432	-27.27659	789.03467	-828.26990	
57	0.560	-736.51471	99.41453	-539.14838	678.56128	94.01154	-455.24988	-806.65631	-107.43464	662.54645	763.12585	-101.93155	666.05853	-27.24608	789.07434	-828.28363	
58	0.570	-736.54633	99.42049	-539.12000	678.55957	93.99720	-455.23126	-806.65979	-107.42669	662.49829	763.15460	-101.90367	666.03271	-27.21783	789.04010	-828.26709	
59	0.580	-736.54169	99.41061	-539.14624	678.55609	94.00690	-455.27228	-806.65936	-107.49614	662.52277	763.12476	-101.88259	666.03326	-27.25711	789.02032	-828.25348	
60	0.590	-736.55939	99.44144	-539.16180	678.52338	93.99064	-455.28500	-806.63812	-107.52767	662.55713	763.11749	-101.90350	666.05554	-27.30910	789.05048	-828.25439	
